<?xml version="1.0" encoding="UTF-8"?><svg id="Layer_2" xmlns="http://www.w3.org/2000/svg" width="678.4" height="690" xmlns:xlink="http://www.w3.org/1999/xlink" viewBox="0 0 678.4 690"><defs><linearGradient id="linear-gradient" x1="681.1" y1="231.7" x2="803" y2="231.7" gradientUnits="userSpaceOnUse"><stop offset="0" stop-color="#fff"/><stop offset="1" stop-color="#231f20"/></linearGradient><linearGradient id="linear-gradient-2" x1="528.8" y1="53.5" x2="542.5" y2="185.9" gradientUnits="userSpaceOnUse"><stop offset="0" stop-color="#fff"/><stop offset=".1" stop-color="#fbfbfb" stop-opacity="1"/><stop offset=".2" stop-color="#f2f1f2" stop-opacity=".9"/><stop offset=".4" stop-color="#e2e1e1" stop-opacity=".8"/><stop offset=".5" stop-color="#cbcbcb" stop-opacity=".7"/><stop offset=".6" stop-color="#aeaeae" stop-opacity=".6"/><stop offset=".8" stop-color="#8b8a8b" stop-opacity=".4"/><stop offset=".9" stop-color="#626161" stop-opacity=".1"/><stop offset="1" stop-color="#494748" stop-opacity="0"/></linearGradient><linearGradient id="linear-gradient-3" x1="98" y1="428.6" x2="161.1" y2="681.6" gradientUnits="userSpaceOnUse"><stop offset=".2" stop-color="#fff" stop-opacity="0"/><stop offset=".3" stop-color="#fff" stop-opacity=".2"/><stop offset=".5" stop-color="#fff" stop-opacity=".6"/><stop offset=".7" stop-color="#fff" stop-opacity=".9"/><stop offset=".7" stop-color="#fff"/></linearGradient><linearGradient id="linear-gradient-4" x1="378.7" y1="672" x2="400.8" y2="694.8" xlink:href="#linear-gradient"/></defs><g id="Layer_1-2"><path d="m468.5,26.7c-21.3-8.6-43.8-15.4-65.5-19.7-.3,0-.7-.1-1-.2h0C377.3,1.9,355.9,0,328.5,0c-23.5,0-35.4.9-59.9,4.5-37.6,5.4-86.5,22.7-118.5,41.7-5.3,3.1-10,5.9-10.6,6.2-4.5,2.3-30.6,20.9-33.5,24-.3.3-2.8,2.3-5.5,4.5-27.1,21.6-56.5,55.2-75.6,86.7-10.3,16.9-19.9,35.2-19.9,38s14.9,48,42.5,131.3c6.8,20.3,18.2,55,25.5,77s13.9,41.4,14.7,43.2c2.7,5.8,3.9,6,41.5,6.1h34.1c0,.1,3.2-3.3,3.2-3.3,1.8-1.9,3.5-4.7,3.9-6.2,1.4-5.7,41.2-121.3,43.8-127.3,1.1-2.5,1.7-3,2.1-2,.3.8,4.2,11.4,8.5,23.5,13.9,38.6,35.5,97.8,39.3,107.7.6,1.5,2.2,3.7,3.5,5l2.5,2.3h42.9c42,0,42.9,0,45.7-2.1,2.8-2.1,8.3-16,33.8-85.4,2.9-8,8.1-21.9,11.5-31,3.4-9.1,9.5-25.5,13.6-36.4,4.1-10.9,7.9-20.6,8.6-21.4.7-.8,3.2-2.3,5.6-3.4,4.2-1.8,9.5-1.9,122.8-1.9s118.4-.2,118.4-1.3c0-2-12.7-52.2-15.3-60.7l-2.3-7.5-120.9-.3c-134.2-.3-131.8-.4-145.8,6.1-7.7,3.6-14.8,9.3-19,15.4-2.7,3.9-7.4,15.1-12.6,29.8-1.7,4.8-5.5,15.1-8.5,22.9-4.1,10.7-24.9,66.3-35.8,95.6-1.1,3.1-1.3,2.8-6.3-10.5-2.1-5.5-4.6-12.2-5.7-15s-3-7.9-4.3-11.5c-2.3-6.5-6.9-18.8-22.4-60.5-4.5-12.1-11.4-30.7-15.4-41.3-4.4-11.8-8.1-20.3-9.6-21.8l-2.4-2.4h-31.7c-31.6,0-31.7,0-33.8,2.2-2.5,2.7-2.4,2.5-14.8,37.2-5.3,14.9-10.7,29.9-12,33.5-1.3,3.6-5.8,16.2-10,28-9.5,26.8-12.7,35-13.6,35s-3-7.3-5.9-16.2c-9.3-29.2-34.5-107.8-39.6-123.7-1.5-4.8-2.2-8.5-1.8-10.3,1.1-5.1,17.6-28.4,30.3-42.7,49.7-56.2,111.9-87.4,189-95,7-.7,17.5-1,27.9-1,9.9.1,19.8.6,26.8,1.3,10.2,1,32,4.6,40.5,6.5,9.8,2.8,2.2.5,10.5,3,7.5,2,14.7,4.2,21.7,6.6" style="fill:url(#linear-gradient); stroke-width:0px;"/><path d="m430.2,82.8c20.9,7.4,40.3,17.3,63.6,32.3,20.3,13,47.3,38.7,66.5,63.3,2.9,3.7,6.1,6.6,7.9,7.2,1.9.7,16.3,1.1,39.5,1.1h36.4l-4.7-8.8c-28.2-52.2-72.4-97.4-126.5-129.4-13.6-8-28.7-15.4-44.5-21.8" style="fill:url(#linear-gradient-2); stroke-width:0px;"/><path d="m211,669.1c3.2,1.1,6.5,2.2,9.7,3.3,26.9,8.6,61.8,15.6,85.2,16.9,3.3.2,7,.3,11,.4,13.2.5,25.1.1,35.2-.6,3.4-.2,6.6-.4,9.3-.7,19.9-1.9,37.7-5.1,56.6-10.1.8-.2,1.5-.4,2.2-.6,6.5-1.8,13.2-3.8,20.1-6.1,36.9-12.1,69.8-29,98.6-50.7,22.8-17.2,46.1-39.3,62.6-59.7,51-62.8,76.9-137.7,76.9-222.2v-15.3h-104.4c-79.6,0-102.8.2-104.8,1.1-.4,0-.6.2-.6.2-11.2,27.9-20.2,49.9-22.6,55.6-1.7,4.1-3.1,7.5-3.1,7.8s36.2.4,80.5.4c76,0,80.5,0,80.5,1.8s-.7,5.3-1.5,9.6c-6.6,34.7-21.6,70.9-41.8,101.1-3.3,4.9-6.4,9.4-6.8,10-.5.6-3.9,4.9-7.5,9.6-14.9,19.1-42,43.3-65.2,58.2-22,14.2-48.8,26-75.9,33.7-16.1,4.5-32.4,7.7-47.8,9-18.7,1.7-52.7.6-69-2.1l.3.3c-.3,0-.5,0-.8-.1-13.9-2.3-27.5-5.5-40.6-9.6" style="fill:#fff; stroke-width:0px;"/><path d="m247.4,610.4c-43.5-13.6-82.1-37-114.5-69.3-22.1-22.1-37.4-43.5-53.5-75-3.8-7.5-6.3-11.1-8-11.9-1.8-.8-13-1.2-37-1.2H0l3,8.2c17.3,46.9,40.8,85.4,72.5,118.7,40.5,42.6,83.5,70.9,135.5,89.2" style="fill:url(#linear-gradient-3); stroke-width:0px;"/><path d="m361.9,688.4s35.6-4.8,55.7-9.9c-18.6,4.9-36.2,8-55.7,9.9Z" style="fill:url(#linear-gradient-4); stroke-width:0px;"/></g></svg>